<svg width="25" height="26" viewBox="0 0 25 26" fill="none" xmlns="http://www.w3.org/2000/svg">
<path fill-rule="evenodd" clip-rule="evenodd" d="M21.8116 11.0688V19.1874C21.8116 21.501 19.9515 23.3765 17.657 23.3765H7.27056C4.97604 23.3765 3.11597 21.501 3.11597 19.1874V11.0688C3.11597 9.81108 3.67647 8.61988 4.64263 7.8243L9.83587 3.54801C11.3652 2.28869 13.5624 2.28868 15.0917 3.548L20.2849 7.8243C21.2511 8.61988 21.8116 9.81108 21.8116 11.0688ZM15.8394 18.4429V20.7798C15.8394 21.3535 15.3744 21.8185 14.8007 21.8185H10.1268C9.55321 21.8185 9.08819 21.3535 9.08819 20.7798V18.4429C9.08819 16.5786 10.5995 15.0673 12.4638 15.0673C14.3281 15.0673 15.8394 16.5786 15.8394 18.4429Z" fill="#06432D"/>
</svg>
