<svg width="25" height="24" viewBox="0 0 25 24" fill="none" xmlns="http://www.w3.org/2000/svg">
<path d="M4.95549 13.88L4.1934 13.2326H4.1934L4.95549 13.88ZM5.83476 11.8385L4.84111 11.7259L5.83476 11.8385ZM19.1652 11.8385L20.1589 11.7259V11.7259L19.1652 11.8385ZM20.0445 13.88L20.8066 13.2326L20.0445 13.88ZM18.8204 8.79403L17.8267 8.9066V8.9066L18.8204 8.79403ZM6.17964 8.79403L7.17328 8.9066L6.17964 8.79403ZM16.4364 19.3509C16.6302 18.8338 16.3681 18.2574 15.8509 18.0636C15.3338 17.8698 14.7574 18.1319 14.5636 18.6491L16.4364 19.3509ZM10.4364 18.6491C10.2426 18.1319 9.66622 17.8698 9.14906 18.0636C8.6319 18.2574 8.36978 18.8338 8.5636 19.3509L10.4364 18.6491ZM18.6699 16H6.33014V18H18.6699V16ZM17.8267 8.9066L18.1716 11.9511L20.1589 11.7259L19.814 8.68147L17.8267 8.9066ZM6.8284 11.9511L7.17328 8.9066L5.18599 8.68147L4.84111 11.7259L6.8284 11.9511ZM5.71758 14.5275C6.33481 13.801 6.72065 12.9023 6.8284 11.9511L4.84111 11.7259C4.77748 12.2877 4.55012 12.8127 4.1934 13.2326L5.71758 14.5275ZM18.1716 11.9511C18.2794 12.9023 18.6652 13.801 19.2824 14.5275L20.8066 13.2326C20.4499 12.8127 20.2225 12.2877 20.1589 11.7259L18.1716 11.9511ZM6.33014 16C5.67086 16 5.19832 15.1387 5.71758 14.5275L4.1934 13.2326C2.64586 15.0541 3.85077 18 6.33014 18V16ZM18.6699 18C21.1492 18 22.3541 15.0541 20.8066 13.2326L19.2824 14.5275C19.8017 15.1387 19.3291 16 18.6699 16V18ZM19.814 8.68147C19.3852 4.89602 16.2608 2 12.5 2V4C15.1973 4 17.5072 6.08569 17.8267 8.9066L19.814 8.68147ZM7.17328 8.9066C7.49283 6.08569 9.80271 4 12.5 4V2C8.73918 2 5.61481 4.89602 5.18599 8.68147L7.17328 8.9066ZM14.5636 18.6491C14.2789 19.4088 13.4844 20 12.5 20V22C14.2856 22 15.8478 20.9216 16.4364 19.3509L14.5636 18.6491ZM12.5 20C11.5156 20 10.7211 19.4088 10.4364 18.6491L8.5636 19.3509C9.15224 20.9216 10.7144 22 12.5 22V20Z" fill="#06432D"/>
</svg>
