<svg width="24" height="24" viewBox="0 0 24 24" fill="none" xmlns="http://www.w3.org/2000/svg">
<path fill-rule="evenodd" clip-rule="evenodd" d="M3.70711 1.10532C4.08218 0.730245 4.59089 0.519531 5.12132 0.519531H13.5C14.6046 0.519531 15.5 1.41496 15.5 2.51953V3.51953H17.1811C17.8616 3.51953 18.4954 3.86557 18.8634 4.43802L22.6824 10.3786C22.8897 10.7012 23 11.0766 23 11.4601V17.5195C23 17.9523 22.8596 18.3733 22.6 18.7195L21.85 19.7195C21.4723 20.2231 20.8795 20.5195 20.25 20.5195H18.9585C18.7205 21.9384 17.4865 23.0195 16 23.0195C14.5135 23.0195 13.2795 21.9384 13.0415 20.5195H10.9585C10.7205 21.9384 9.4865 23.0195 8 23.0195C6.5135 23.0195 5.27952 21.9384 5.04148 20.5195H3.93845L2.72944 20.2173C2.00689 20.0366 1.5 19.3874 1.5 18.6426V17.5195C1.5 17.2434 1.72386 17.0195 2 17.0195C2.27614 17.0195 2.5 17.2434 2.5 17.5195V18.2042C2.5 18.7478 2.86997 19.2216 3.39734 19.3535L4.06155 19.5195H5.04148C5.27952 18.1007 6.5135 17.0195 8 17.0195C9.4865 17.0195 10.7205 18.1007 10.9585 19.5195H13.0415C13.2795 18.1007 14.5135 17.0195 16 17.0195C17.4865 17.0195 18.7205 18.1007 18.9585 19.5195H19.75C20.3795 19.5195 20.9723 19.2231 21.35 18.7195L21.6 18.3862C21.8596 18.04 22 17.6189 22 17.1862V11.7538C22 11.3703 21.8897 10.9949 21.6824 10.6723L18.3175 5.43802C17.9495 4.86557 17.3156 4.51953 16.6351 4.51953H15.5V11.6654C15.5 11.9759 15.4277 12.2821 15.2889 12.5599L14.618 13.9015C14.4286 14.2803 14.0415 14.5195 13.618 14.5195H13C12.7239 14.5195 12.5 14.2957 12.5 14.0195C12.5 13.7434 12.7239 13.5195 13 13.5195H13.2361C13.5149 13.5195 13.7697 13.362 13.8944 13.1126L14.2889 12.3238C14.4277 12.0461 14.5 11.7399 14.5 11.4294V3.51953C14.5 2.41496 13.6046 1.51953 12.5 1.51953H5.53553C5.0051 1.51953 4.49639 1.73024 4.12132 2.10532L2.70711 3.51953C2.51184 3.71479 2.19526 3.71479 2 3.51953C1.80474 3.32427 1.80474 3.00769 2 2.81242L3.70711 1.10532ZM8 22.0195C9.10457 22.0195 10 21.1241 10 20.0195C10 18.915 9.10457 18.0195 8 18.0195C6.89543 18.0195 6 18.915 6 20.0195C6 21.1241 6.89543 22.0195 8 22.0195ZM18 20.0195C18 21.1241 17.1046 22.0195 16 22.0195C14.8954 22.0195 14 21.1241 14 20.0195C14 18.915 14.8954 18.0195 16 18.0195C17.1046 18.0195 18 18.915 18 20.0195Z" fill="#0C0C08"/>
<path d="M8.5 7.51953C8.5 7.79567 8.27614 8.01953 8 8.01953H1.5C1.22386 8.01953 1 7.79567 1 7.51953C1 7.24339 1.22386 7.01953 1.5 7.01953H8C8.27614 7.01953 8.5 7.24339 8.5 7.51953Z" fill="#0C0C08"/>
<path d="M6 10.5195C6 10.7957 5.77614 11.0195 5.5 11.0195H1.5C1.22386 11.0195 1 10.7957 1 10.5195C1 10.2434 1.22386 10.0195 1.5 10.0195H5.5C5.77614 10.0195 6 10.2434 6 10.5195Z" fill="#0C0C08"/>
<path d="M4 14.0195C4 14.2957 3.77614 14.5195 3.5 14.5195H1.5C1.22386 14.5195 1 14.2957 1 14.0195C1 13.7434 1.22386 13.5195 1.5 13.5195H3.5C3.77614 13.5195 4 13.7434 4 14.0195Z" fill="#0C0C08"/>
<path fill-rule="evenodd" clip-rule="evenodd" d="M3.70711 1.10532C4.08218 0.730245 4.59089 0.519531 5.12132 0.519531H13.5C14.6046 0.519531 15.5 1.41496 15.5 2.51953V3.51953H17.1811C17.8616 3.51953 18.4954 3.86557 18.8634 4.43802L22.6824 10.3786C22.8897 10.7012 23 11.0766 23 11.4601V17.5195C23 17.9523 22.8596 18.3733 22.6 18.7195L21.85 19.7195C21.4723 20.2231 20.8795 20.5195 20.25 20.5195H18.9585C18.7205 21.9384 17.4865 23.0195 16 23.0195C14.5135 23.0195 13.2795 21.9384 13.0415 20.5195H10.9585C10.7205 21.9384 9.4865 23.0195 8 23.0195C6.5135 23.0195 5.27952 21.9384 5.04148 20.5195H3.93845L2.72944 20.2173C2.00689 20.0366 1.5 19.3874 1.5 18.6426V17.5195C1.5 17.2434 1.72386 17.0195 2 17.0195C2.27614 17.0195 2.5 17.2434 2.5 17.5195V18.2042C2.5 18.7478 2.86997 19.2216 3.39734 19.3535L4.06155 19.5195H5.04148C5.27952 18.1007 6.5135 17.0195 8 17.0195C9.4865 17.0195 10.7205 18.1007 10.9585 19.5195H13.0415C13.2795 18.1007 14.5135 17.0195 16 17.0195C17.4865 17.0195 18.7205 18.1007 18.9585 19.5195H19.75C20.3795 19.5195 20.9723 19.2231 21.35 18.7195L21.6 18.3862C21.8596 18.04 22 17.6189 22 17.1862V11.7538C22 11.3703 21.8897 10.9949 21.6824 10.6723L18.3175 5.43802C17.9495 4.86557 17.3156 4.51953 16.6351 4.51953H15.5V11.6654C15.5 11.9759 15.4277 12.2821 15.2889 12.5599L14.618 13.9015C14.4286 14.2803 14.0415 14.5195 13.618 14.5195H13C12.7239 14.5195 12.5 14.2957 12.5 14.0195C12.5 13.7434 12.7239 13.5195 13 13.5195H13.2361C13.5149 13.5195 13.7697 13.362 13.8944 13.1126L14.2889 12.3238C14.4277 12.0461 14.5 11.7399 14.5 11.4294V3.51953C14.5 2.41496 13.6046 1.51953 12.5 1.51953H5.53553C5.0051 1.51953 4.49639 1.73024 4.12132 2.10532L2.70711 3.51953C2.51184 3.71479 2.19526 3.71479 2 3.51953C1.80474 3.32427 1.80474 3.00769 2 2.81242L3.70711 1.10532ZM8 22.0195C9.10457 22.0195 10 21.1241 10 20.0195C10 18.915 9.10457 18.0195 8 18.0195C6.89543 18.0195 6 18.915 6 20.0195C6 21.1241 6.89543 22.0195 8 22.0195ZM18 20.0195C18 21.1241 17.1046 22.0195 16 22.0195C14.8954 22.0195 14 21.1241 14 20.0195C14 18.915 14.8954 18.0195 16 18.0195C17.1046 18.0195 18 18.915 18 20.0195Z" stroke="#0C0C08" stroke-width="0.5"/>
<path d="M8.5 7.51953C8.5 7.79567 8.27614 8.01953 8 8.01953H1.5C1.22386 8.01953 1 7.79567 1 7.51953C1 7.24339 1.22386 7.01953 1.5 7.01953H8C8.27614 7.01953 8.5 7.24339 8.5 7.51953Z" stroke="#0C0C08" stroke-width="0.5"/>
<path d="M6 10.5195C6 10.7957 5.77614 11.0195 5.5 11.0195H1.5C1.22386 11.0195 1 10.7957 1 10.5195C1 10.2434 1.22386 10.0195 1.5 10.0195H5.5C5.77614 10.0195 6 10.2434 6 10.5195Z" stroke="#0C0C08" stroke-width="0.5"/>
<path d="M4 14.0195C4 14.2957 3.77614 14.5195 3.5 14.5195H1.5C1.22386 14.5195 1 14.2957 1 14.0195C1 13.7434 1.22386 13.5195 1.5 13.5195H3.5C3.77614 13.5195 4 13.7434 4 14.0195Z" stroke="#0C0C08" stroke-width="0.5"/>
</svg>
