<svg width="25" height="26" viewBox="0 0 25 26" fill="none" xmlns="http://www.w3.org/2000/svg">
<path fill-rule="evenodd" clip-rule="evenodd" d="M10.3866 3.64209H11.5736C14.934 3.64209 17.7508 6.01784 18.5003 9.21375C18.6281 9.75876 18.6957 10.3276 18.6957 10.9126C18.6957 14.928 15.5071 18.1832 11.5736 18.1832H7.23076H4.45144C3.14029 18.1832 2.07739 17.0981 2.07739 15.7596V12.1244C2.07739 7.43974 5.79754 3.64209 10.3866 3.64209ZM11.8703 20.2604H8.36966C9.65423 21.5454 11.4135 22.3377 13.3541 22.3377H17.697H20.4763C21.7874 22.3377 22.8503 21.2527 22.8503 19.9142V16.279C22.8503 14.126 22.0646 12.1605 20.77 10.6648C20.772 10.7471 20.773 10.8297 20.773 10.9126C20.773 16.0753 16.7872 20.2604 11.8703 20.2604Z" fill="#06432D"/>
</svg>
