<svg width="25" height="25" viewBox="0 0 25 25" fill="none" xmlns="http://www.w3.org/2000/svg">
<path fill-rule="evenodd" clip-rule="evenodd" d="M6.23198 4.1543C3.93747 4.1543 2.07739 6.01437 2.07739 8.30889V16.6181C2.07739 18.9126 3.93747 20.7727 6.23198 20.7727H18.6957C20.9903 20.7727 22.8503 18.9126 22.8503 16.6181V8.30889C22.8503 6.01437 20.9903 4.1543 18.6957 4.1543H6.23198ZM12.4639 14.5408C13.6111 14.5408 14.5412 13.6107 14.5412 12.4635C14.5412 11.3162 13.6111 10.3862 12.4639 10.3862C11.3166 10.3862 10.3866 11.3162 10.3866 12.4635C10.3866 13.6107 11.3166 14.5408 12.4639 14.5408ZM16.8781 17.6567C16.8781 17.2265 17.2269 16.8777 17.6571 16.8777H19.7344C20.1646 16.8777 20.5134 17.2265 20.5134 17.6567C20.5134 18.0869 20.1646 18.4357 19.7344 18.4357H17.6571C17.2269 18.4357 16.8781 18.0869 16.8781 17.6567ZM17.6571 6.49125C17.2269 6.49125 16.8781 6.84002 16.8781 7.27024C16.8781 7.70046 17.2269 8.04922 17.6571 8.04922H19.7344C20.1646 8.04922 20.5134 7.70046 20.5134 7.27024C20.5134 6.84002 20.1646 6.49125 19.7344 6.49125H17.6571ZM4.41435 7.27024C4.41435 6.84002 4.76311 6.49125 5.19333 6.49125H7.27063C7.70085 6.49125 8.04961 6.84002 8.04961 7.27024C8.04961 7.70046 7.70085 8.04922 7.27063 8.04922H5.19333C4.76311 8.04922 4.41435 7.70046 4.41435 7.27024ZM5.19333 16.8777C4.76311 16.8777 4.41435 17.2265 4.41435 17.6567C4.41435 18.0869 4.76311 18.4357 5.19333 18.4357H7.27063C7.70085 18.4357 8.04961 18.0869 8.04961 17.6567C8.04961 17.2265 7.70085 16.8777 7.27063 16.8777H5.19333Z" fill="#06432D"/>
</svg>
