<svg width="25" height="24" viewBox="0 0 25 24" fill="none" xmlns="http://www.w3.org/2000/svg">
<path d="M9.25234 21H19.5M12.2844 5.31171C12.2844 5.31171 12.2844 6.94634 13.919 8.58096C15.5537 10.2156 17.1883 10.2156 17.1883 10.2156M5.81963 17.9881L9.25234 17.4977C9.7475 17.4269 10.2064 17.1975 10.56 16.8438L18.8229 8.58096C19.7257 7.67818 19.7257 6.21449 18.8229 5.31171L17.1883 3.67708C16.2855 2.77431 14.8218 2.77431 13.919 3.67708L5.65616 11.94C5.30248 12.2936 5.07305 12.7525 5.00231 13.2477L4.51193 16.6804C4.40295 17.4432 5.0568 18.097 5.81963 17.9881Z" stroke="none" stroke-width="1.5" stroke-linecap="round"/>
</svg>
