<svg width="25" height="25" viewBox="0 0 25 25" fill="none" xmlns="http://www.w3.org/2000/svg">
<path fill-rule="evenodd" clip-rule="evenodd" d="M8.81431 7.46407L8.81871 7.45306C8.81871 7.45306 8.81311 7.44695 8.80631 7.44002C8.79951 7.43309 8.78511 7.43717 8.78511 7.43717L8.76871 7.41821H8.73991H8.71111L8.69471 7.43717C8.69471 7.43717 8.68031 7.43309 8.67351 7.44002C8.66671 7.44695 8.66111 7.45306 8.66111 7.45306L8.66551 7.46407L8.65991 7.48037C8.65991 7.48037 8.67638 7.54392 8.67831 7.55168C8.68211 7.56697 8.68471 7.57288 8.69551 7.58062C8.70631 7.58836 8.72591 7.60181 8.72911 7.60385C8.73231 7.60589 8.73631 7.60936 8.73991 7.60936C8.74351 7.60936 8.74751 7.60589 8.75071 7.60385C8.75391 7.60181 8.77351 7.58836 8.78431 7.58062C8.79511 7.57288 8.79771 7.56697 8.80151 7.55168C8.80344 7.54392 8.81991 7.48037 8.81991 7.48037L8.81431 7.46407Z" fill="url(#paint0_linear_2133_646)"/>
<path fill-rule="evenodd" clip-rule="evenodd" d="M8.73992 7.53708C8.74101 7.53708 8.74804 7.53961 8.75368 7.54258C8.75931 7.54555 8.7634 7.54766 8.7647 7.54849C8.76601 7.54932 8.76521 7.55089 8.76402 7.55175C8.76283 7.5526 8.74685 7.56521 8.7453 7.56661C8.74375 7.568 8.74147 7.5703 8.73992 7.5703C8.73837 7.5703 8.73609 7.568 8.73454 7.56661C8.73298 7.56521 8.717 7.5526 8.71581 7.55175C8.71462 7.55089 8.71382 7.54932 8.71513 7.54849C8.71644 7.54766 8.72052 7.54555 8.72616 7.54258C8.7318 7.53961 8.73882 7.53708 8.73992 7.53708ZM8.74 7.44727C8.74054 7.44728 8.74357 7.44743 8.74792 7.44891C8.75272 7.45054 8.75792 7.45257 8.76032 7.45257C8.76272 7.45257 8.78052 7.44911 8.78052 7.44911C8.78052 7.44911 8.80161 7.47509 8.80161 7.48064C8.80161 7.48619 8.79896 7.48766 8.79629 7.49055C8.79362 7.49343 8.78197 7.50604 8.78047 7.50766C8.77898 7.50928 8.77586 7.51173 8.77769 7.51615C8.77953 7.52057 8.78223 7.52619 8.77922 7.53189C8.77622 7.53759 8.77107 7.5414 8.76777 7.54077C8.76447 7.54014 8.75672 7.53601 8.75387 7.53413C8.75102 7.53225 8.74198 7.52466 8.74198 7.52175C8.74198 7.51885 8.75132 7.51363 8.75305 7.51245C8.75477 7.51126 8.76264 7.50668 8.7628 7.50488C8.76296 7.50308 8.7629 7.50255 8.76058 7.49811C8.75826 7.49366 8.75408 7.48772 8.75477 7.48378C8.75547 7.47983 8.76221 7.47777 8.76702 7.47592C8.77184 7.47407 8.7811 7.47057 8.78226 7.47003C8.78342 7.46949 8.78312 7.46897 8.77961 7.46863C8.77611 7.46829 8.76615 7.46695 8.76167 7.46822C8.75718 7.46949 8.74952 7.47143 8.7489 7.47246C8.74828 7.47349 8.74773 7.47352 8.74837 7.47707C8.749 7.48061 8.75229 7.49762 8.75261 7.50065C8.75292 7.50367 8.75355 7.50567 8.75035 7.50641C8.74715 7.50716 8.74177 7.50845 8.73992 7.50845C8.73807 7.50845 8.73268 7.50716 8.72949 7.50641C8.72629 7.50567 8.72691 7.50367 8.72723 7.50065C8.72755 7.49762 8.73083 7.48061 8.73147 7.47707C8.7321 7.47352 8.73156 7.47349 8.73094 7.47246C8.73032 7.47143 8.72265 7.46949 8.71817 7.46822C8.71368 7.46695 8.70373 7.46829 8.70022 7.46863C8.69672 7.46897 8.69642 7.46949 8.69757 7.47003C8.69873 7.47057 8.708 7.47407 8.71281 7.47592C8.71762 7.47777 8.72437 7.47983 8.72506 7.48378C8.72576 7.48772 8.72158 7.49366 8.71926 7.49811C8.71693 7.50255 8.71687 7.50308 8.71703 7.50488C8.71719 7.50668 8.72506 7.51126 8.72679 7.51245C8.72851 7.51363 8.73785 7.51885 8.73785 7.52175C8.73785 7.52466 8.72882 7.53225 8.72597 7.53413C8.72312 7.53601 8.71537 7.54014 8.71207 7.54077C8.70877 7.5414 8.70362 7.53759 8.70061 7.53189C8.6976 7.52619 8.70031 7.52057 8.70214 7.51615C8.70397 7.51173 8.70086 7.50928 8.69936 7.50766C8.69786 7.50604 8.68621 7.49343 8.68354 7.49055C8.68088 7.48766 8.67822 7.48619 8.67822 7.48064C8.67822 7.47509 8.69932 7.44911 8.69932 7.44911C8.69932 7.44911 8.71712 7.45257 8.71952 7.45257C8.72192 7.45257 8.72712 7.45054 8.73192 7.44891C8.73626 7.44743 8.73929 7.44728 8.73983 7.44727H8.74Z" fill="white"/>
<path d="M8.78518 7.43717L8.76878 7.41821H8.73998H8.71118L8.69478 7.43717C8.69478 7.43717 8.68038 7.43309 8.67358 7.44002C8.67358 7.44002 8.69278 7.43826 8.69938 7.44919C8.69938 7.44919 8.71718 7.45266 8.71958 7.45266C8.72198 7.45266 8.72718 7.45062 8.73198 7.44899C8.73678 7.44736 8.73998 7.44735 8.73998 7.44735C8.73998 7.44735 8.74318 7.44736 8.74798 7.44899C8.75278 7.45062 8.75798 7.45266 8.76038 7.45266C8.76278 7.45266 8.78058 7.44919 8.78058 7.44919C8.78718 7.43826 8.80638 7.44002 8.80638 7.44002C8.79958 7.43309 8.78518 7.43717 8.78518 7.43717Z" fill="url(#paint1_linear_2133_646)"/>
<mask id="mask0_2133_646" style="mask-type:luminance" maskUnits="userSpaceOnUse" x="3" y="3" width="19" height="18">
<path d="M12.6601 3.52624C14.7269 3.52624 16.5834 4.2637 18.0642 5.47469L15.8783 7.66062C14.9842 6.99272 13.8768 6.58988 12.6601 6.58988C9.63199 6.58988 7.19193 9.02994 7.19193 12.0581C7.19193 15.0862 9.63199 17.5262 12.6601 17.5262C15.1943 17.5262 17.1713 16.2265 17.6429 13.9116L17.7084 13.5899H17.3801H12.9283V10.7262H20.6441C20.7349 11.1701 20.7919 11.6307 20.7919 12.0581C20.7919 17.5017 16.9204 20.5899 12.6601 20.5899C7.92822 20.5899 4.12829 16.7899 4.12829 12.0581C4.12829 7.32617 7.92822 3.52624 12.6601 3.52624Z" fill="white" stroke="white" stroke-width="0.536364"/>
</mask>
<g mask="url(#mask0_2133_646)">
<path d="M3.06006 17.2582V6.85815L9.86006 12.0582L3.06006 17.2582Z" fill="#FBBC05"/>
</g>
<mask id="mask1_2133_646" style="mask-type:luminance" maskUnits="userSpaceOnUse" x="3" y="3" width="19" height="18">
<path d="M20.8601 10.4581H12.6601V13.8581H17.3801C16.9401 16.0181 15.1001 17.2581 12.6601 17.2581C9.78011 17.2581 7.46011 14.9381 7.46011 12.0581C7.46011 9.17806 9.78011 6.85806 12.6601 6.85806C13.9001 6.85806 15.0201 7.29806 15.9001 8.01806L18.4601 5.45806C16.9001 4.09806 14.9001 3.25806 12.6601 3.25806C7.78011 3.25806 3.86011 7.17806 3.86011 12.0581C3.86011 16.9381 7.78011 20.8581 12.6601 20.8581C17.0601 20.8581 21.0601 17.6581 21.0601 12.0581C21.0601 11.5381 20.9801 10.9781 20.8601 10.4581Z" fill="white"/>
</mask>
<g mask="url(#mask1_2133_646)">
<path d="M3.06006 6.85801L9.86006 12.058L12.6601 9.61801L22.2601 8.05801V2.45801H3.06006V6.85801Z" fill="#EA4335"/>
</g>
<mask id="mask2_2133_646" style="mask-type:luminance" maskUnits="userSpaceOnUse" x="3" y="3" width="19" height="18">
<path d="M20.8601 10.4581H12.6601V13.8581H17.3801C16.9401 16.0181 15.1001 17.2581 12.6601 17.2581C9.78011 17.2581 7.46011 14.9381 7.46011 12.0581C7.46011 9.17806 9.78011 6.85806 12.6601 6.85806C13.9001 6.85806 15.0201 7.29806 15.9001 8.01806L18.4601 5.45806C16.9001 4.09806 14.9001 3.25806 12.6601 3.25806C7.78011 3.25806 3.86011 7.17806 3.86011 12.0581C3.86011 16.9381 7.78011 20.8581 12.6601 20.8581C17.0601 20.8581 21.0601 17.6581 21.0601 12.0581C21.0601 11.5381 20.9801 10.9781 20.8601 10.4581Z" fill="white"/>
</mask>
<g mask="url(#mask2_2133_646)">
<path d="M3.06006 17.258L15.0601 8.05801L18.2201 8.45801L22.2601 2.45801V21.658H3.06006V17.258Z" fill="#34A853"/>
</g>
<mask id="mask3_2133_646" style="mask-type:luminance" maskUnits="userSpaceOnUse" x="3" y="3" width="19" height="18">
<path d="M20.8601 10.4581H12.6601V13.8581H17.3801C16.9401 16.0181 15.1001 17.2581 12.6601 17.2581C9.78011 17.2581 7.46011 14.9381 7.46011 12.0581C7.46011 9.17806 9.78011 6.85806 12.6601 6.85806C13.9001 6.85806 15.0201 7.29806 15.9001 8.01806L18.4601 5.45806C16.9001 4.09806 14.9001 3.25806 12.6601 3.25806C7.78011 3.25806 3.86011 7.17806 3.86011 12.0581C3.86011 16.9381 7.78011 20.8581 12.6601 20.8581C17.0601 20.8581 21.0601 17.6581 21.0601 12.0581C21.0601 11.5381 20.9801 10.9781 20.8601 10.4581Z" fill="white"/>
</mask>
<g mask="url(#mask3_2133_646)">
<path d="M22.26 21.6582L9.86001 12.0582L8.26001 10.8582L22.26 6.85815V21.6582Z" fill="#4285F4"/>
</g>
<defs>
<linearGradient id="paint0_linear_2133_646" x1="8.65991" y1="17.1102" x2="24.6599" y2="17.1102" gradientUnits="userSpaceOnUse">
<stop stop-color="#FF5500"/>
<stop offset="0.409877" stop-color="#FF5500"/>
<stop offset="0.581981" stop-color="#FF2000"/>
<stop offset="1" stop-color="#FF2000"/>
</linearGradient>
<linearGradient id="paint1_linear_2133_646" x1="8.9589" y1="9.16463" x2="21.9536" y2="9.16463" gradientUnits="userSpaceOnUse">
<stop stop-color="#FF452A"/>
<stop offset="1" stop-color="#FF2000"/>
</linearGradient>
</defs>
</svg>
