<svg width="24" height="22" viewBox="0 0 24 22" fill="none" xmlns="http://www.w3.org/2000/svg">
<path fill-rule="evenodd" clip-rule="evenodd" d="M11.9335 3.50773L12.8107 2.56524C15.2332 -0.0373706 19.1608 -0.0373702 21.5833 2.56524C24.0057 5.16784 24.0057 9.3875 21.5833 11.9901L13.688 20.4725C12.719 21.5135 11.1479 21.5135 10.179 20.4725L2.28365 11.9901C-0.138822 9.3875 -0.138821 5.16784 2.28365 2.56524C4.70613 -0.0373716 8.63373 -0.03737 11.0562 2.56524L11.9335 3.50773ZM17.6668 3.19328C17.1918 3.19328 16.8068 3.57832 16.8068 4.05328C16.8068 4.52825 17.1918 4.91328 17.6668 4.91328C18.4584 4.91328 19.1001 5.55501 19.1001 6.34661C19.1001 6.82158 19.4852 7.20661 19.9601 7.20661C20.4351 7.20661 20.8201 6.82158 20.8201 6.34661C20.8201 4.60508 19.4083 3.19328 17.6668 3.19328Z" fill="#0C0C08"/>
</svg>
