<svg width="17" height="22" viewBox="0 0 17 22" fill="none" xmlns="http://www.w3.org/2000/svg">
<path fill-rule="evenodd" clip-rule="evenodd" d="M5.08836 5.53709C5.08836 3.6728 6.59967 2.16149 8.46396 2.16149C10.3283 2.16149 11.8396 3.6728 11.8396 5.53709V6.8354H5.08836V5.53709ZM3.53039 6.90831V5.53709C3.53039 2.81235 5.73923 0.603516 8.46396 0.603516C11.1887 0.603516 13.3975 2.81235 13.3975 5.53709V6.90831C15.3197 7.27293 16.7731 8.96173 16.7731 10.99V17.2219C16.7731 19.5164 14.9131 21.3765 12.6186 21.3765H4.30937C2.01486 21.3765 0.154785 19.5164 0.154785 17.2219V10.99C0.154785 8.96173 1.60822 7.27293 3.53039 6.90831ZM10.5413 14.1059C10.5413 15.2532 9.61122 16.1832 8.46396 16.1832C7.31671 16.1832 6.38667 15.2532 6.38667 14.1059C6.38667 12.9587 7.31671 12.0286 8.46396 12.0286C9.61122 12.0286 10.5413 12.9587 10.5413 14.1059Z" fill="#06432D"/>
</svg>
