<svg width="58" height="36" viewBox="0 0 58 36" fill="none" xmlns="http://www.w3.org/2000/svg">
<g clip-path="url(#clip0_175_1430)">
<path d="M36.8429 31.961H21.1555V4.44434H36.8429V31.961Z" fill="#FF5F00"/>
<path d="M22.1604 18.2002C22.1604 12.6183 24.8381 7.64612 29.008 4.44185C25.9586 2.09873 22.1102 0.700199 17.9278 0.700199C8.0263 0.700199 0 8.53509 0 18.2002C0 27.8653 8.0263 35.7002 17.9278 35.7002C22.1102 35.7002 25.9586 34.3017 29.008 31.9585C24.8381 28.7543 22.1604 23.7821 22.1604 18.2002Z" fill="#EB001B"/>
<path d="M58.0001 18.2002C58.0001 27.8653 49.9738 35.7002 40.0723 35.7002C35.8899 35.7002 32.0414 34.3017 28.991 31.9585C33.162 28.7543 35.8397 23.7821 35.8397 18.2002C35.8397 12.6183 33.162 7.64612 28.991 4.44185C32.0414 2.09873 35.8899 0.700199 40.0723 0.700199C49.9738 0.700199 58.0001 8.53509 58.0001 18.2002Z" fill="#F79E1B"/>
</g>
<defs>
<clipPath id="clip0_175_1430">
<rect width="58" height="35" fill="white" transform="matrix(1 0 0 -1 0 35.7002)"/>
</clipPath>
</defs>
</svg>
