<svg width="16" height="16" viewBox="0 0 16 16" fill="none" xmlns="http://www.w3.org/2000/svg">
<path d="M5.6568 10.3432L2 14M10.5525 10.2508L11.678 9.12528C11.9328 8.87049 12.2784 8.72736 12.6387 8.72736C13.8491 8.72736 14.4552 7.26397 13.5994 6.40811L9.59187 2.40064C8.73601 1.54478 7.27263 2.15094 7.27263 3.3613C7.27263 3.72162 7.12949 4.06718 6.87471 4.32197L5.74922 5.44745C5.49443 5.70224 5.14887 5.84537 4.78855 5.84537C3.57818 5.84537 2.97203 7.30876 3.82789 8.16462L7.83537 12.1721C8.69123 13.0279 10.1546 12.4218 10.1546 11.2114C10.1546 10.8511 10.2978 10.5055 10.5525 10.2508Z" stroke="#06432D" stroke-width="1.5" stroke-linecap="round"/>
</svg>
