<svg width="19" height="19" viewBox="0 0 19 19" fill="none" xmlns="http://www.w3.org/2000/svg">
<path d="M8.03125 13.9337C8.03125 14.778 8.71575 15.4626 9.56014 15.4626C10.4045 15.4626 11.089 14.778 11.089 13.9337V10.8759H14.1468C14.9912 10.8759 15.6757 10.1914 15.6757 9.347C15.6757 8.50262 14.9912 7.81811 14.1468 7.81811H11.089V4.76033C11.089 3.91595 10.4045 3.23145 9.56014 3.23145C8.71575 3.23145 8.03125 3.91595 8.03125 4.76033V7.81811L4.97347 7.81811C4.12909 7.81811 3.44458 8.50262 3.44458 9.347C3.44458 10.1914 4.12909 10.8759 4.97347 10.8759L8.03125 10.8759V13.9337Z" stroke="currentColor" stroke-width="1.72" stroke-linejoin="round"/>
</svg>
