<svg width="25" height="24" viewBox="0 0 25 24" fill="none" xmlns="http://www.w3.org/2000/svg">
<path d="M12 21.75C6.35 21.75 1.75 17.15 1.75 11.5C1.75 5.85 6.35 1.25 12 1.25C17.65 1.25 22.25 5.85 22.25 11.5C22.25 17.15 17.65 21.75 12 21.75ZM12 2.75C7.17 2.75 3.25 6.68 3.25 11.5C3.25 16.32 7.17 20.25 12 20.25C16.83 20.25 20.75 16.32 20.75 11.5C20.75 6.68 16.83 2.75 12 2.75Z" fill="#06432D" stroke="#06432D" stroke-width="0.5"/>
<path d="M22.4999 22.7504C22.3099 22.7504 22.1199 22.6804 21.9699 22.5304L19.9699 20.5304C19.6799 20.2404 19.6799 19.7604 19.9699 19.4704C20.2599 19.1804 20.7399 19.1804 21.0299 19.4704L23.0299 21.4704C23.3199 21.7604 23.3199 22.2404 23.0299 22.5304C22.8799 22.6804 22.6899 22.7504 22.4999 22.7504Z" fill="#06432D" stroke="#06432D" stroke-width="0.5"/>
</svg>
