<svg width="18" height="18" viewBox="0 0 18 18" fill="none" xmlns="http://www.w3.org/2000/svg">
<path d="M15.9628 6.20645L11.4997 5.55782L9.5046 1.51309C9.45011 1.40235 9.36046 1.3127 9.24972 1.25821C8.97198 1.1211 8.63448 1.23536 8.49562 1.51309L6.5005 5.55782L2.03741 6.20645C1.91437 6.22403 1.80187 6.28204 1.71573 6.36993C1.6116 6.47695 1.55422 6.62094 1.5562 6.77026C1.55818 6.91957 1.61935 7.06199 1.72628 7.16622L4.95538 10.3145L4.19249 14.76C4.1746 14.8634 4.18605 14.9697 4.22552 15.067C4.265 15.1642 4.33094 15.2484 4.41585 15.3101C4.50077 15.3718 4.60127 15.4084 4.70595 15.4159C4.81063 15.4234 4.91531 15.4014 5.00812 15.3523L9.00011 13.2535L12.9921 15.3523C13.1011 15.4104 13.2276 15.4297 13.3489 15.4086C13.6548 15.3559 13.8605 15.0658 13.8077 14.76L13.0448 10.3145L16.2739 7.16622C16.3618 7.08008 16.4198 6.96758 16.4374 6.84454C16.4849 6.53692 16.2704 6.25215 15.9628 6.20645Z" fill="#FFD33C"/>
</svg>
