<svg width="25" height="25" viewBox="0 0 25 25" fill="none" xmlns="http://www.w3.org/2000/svg">
<path d="M17.1175 2.77295H8.73749C5.09749 2.77295 2.92749 4.94295 2.92749 8.58295V16.9529C2.92749 20.6029 5.09749 22.7729 8.73749 22.7729H17.1075C20.7475 22.7729 22.9175 20.6029 22.9175 16.9629V8.58295C22.9275 4.94295 20.7575 2.77295 17.1175 2.77295ZM17.7075 10.4729L12.0375 16.1429C11.8975 16.2829 11.7075 16.3629 11.5075 16.3629C11.3075 16.3629 11.1175 16.2829 10.9775 16.1429L8.14749 13.3129C7.85749 13.0229 7.85749 12.5429 8.14749 12.2529C8.43749 11.9629 8.91749 11.9629 9.20749 12.2529L11.5075 14.5529L16.6475 9.41295C16.9375 9.12295 17.4175 9.12295 17.7075 9.41295C17.9975 9.70295 17.9975 10.1729 17.7075 10.4729Z" fill="#06432D"/>
</svg>
