<svg width="25" height="26" viewBox="0 0 25 26" fill="none" xmlns="http://www.w3.org/2000/svg">
<path fill-rule="evenodd" clip-rule="evenodd" d="M18.6955 2.60352H6.23174C3.93722 2.60352 2.07715 4.46359 2.07715 6.7581V19.2219C2.07715 21.1582 3.40175 22.7851 5.19424 23.2459C5.52587 23.3311 5.87351 23.3765 6.23174 23.3765H18.6955C19.0537 23.3765 19.4014 23.3311 19.733 23.2459C21.5255 22.7851 22.8501 21.1582 22.8501 19.2219V6.75811C22.8501 4.46359 20.99 2.60352 18.6955 2.60352ZM12.4636 14.0286C15.0204 14.0286 17.2188 15.6969 18.1881 18.0868C18.6426 19.2073 17.6638 20.2605 16.4546 20.2605H8.47264C7.26344 20.2605 6.28463 19.2073 6.73911 18.0868C7.70843 15.6969 9.90683 14.0286 12.4636 14.0286ZM12.4636 5.71946C14.1845 5.71946 15.5796 7.11451 15.5796 8.8354C15.5796 10.5563 14.1845 11.9513 12.4636 11.9513C10.7427 11.9513 9.34768 10.5563 9.34768 8.8354C9.34768 7.11451 10.7427 5.71946 12.4636 5.71946Z" fill="#06432D"/>
</svg>
